<?xml version="1.0" encoding="UTF-8"?>
<svg version="1.1" xmlns="http://www.w3.org/2000/svg" width="510" height="510">
<path d="M0 0 C0.83516144 -0.00012085 1.67032288 -0.0002417 2.53079224 -0.00036621 C16.24970639 0.02783536 29.25291126 1.15003458 42.625 4.375 C43.96332894 4.6676412 45.30185721 4.95937302 46.640625 5.25 C74.95855388 11.9981022 105.01926912 27.59637155 125.15234375 48.8671875 C126.80250817 50.61437235 126.80250817 50.61437235 129.625 52.8125 C163.41325567 81.67330172 179.85444524 129.32239682 183.328125 172.19140625 C186.15964449 214.84622485 171.55886011 257.31973566 153.625 295.375 C153.14401855 296.40786133 152.66303711 297.44072266 152.16748047 298.50488281 C144.67839199 314.56137499 136.58725147 330.09541822 127.625 345.375 C126.65095215 347.04755859 126.65095215 347.04755859 125.65722656 348.75390625 C118.01351712 361.87873973 110.24373137 374.86141544 101.625 387.375 C100.30947124 389.35215478 98.99689725 391.33127922 97.6875 393.3125 C86.01378071 410.7997315 73.95651701 428.02382399 61.01171875 444.59814453 C59.43098061 446.62360443 57.85596014 448.65344402 56.28125 450.68359375 C53.29616365 454.53039249 50.30483617 458.3722757 47.31054688 462.21191406 C45.76190495 464.19930796 44.21659911 466.18924832 42.671875 468.1796875 C37.35291071 475.01420513 31.88234232 481.68842503 26.2578125 488.2734375 C23.7535592 491.21002714 21.3090567 494.1923726 18.875 497.1875 C18.14152344 498.06664062 17.40804687 498.94578125 16.65234375 499.8515625 C14.61416404 502.3073575 14.61416404 502.3073575 13.00390625 504.8359375 C10.46974204 508.43811606 8.74424853 510.06850652 4.4296875 511.25 C-0.87718292 511.70847693 -4.72026489 511.57480081 -9.1171875 508.38671875 C-11.29320095 506.04037837 -13.2700468 503.64470042 -15.15087891 501.05615234 C-16.39843461 499.34281597 -17.69407399 497.67944638 -19.01171875 496.01953125 C-20.39384848 494.27822639 -21.77146931 492.53474921 -23.13183594 490.77636719 C-26.39339822 486.560758 -29.8055817 482.51262526 -33.3125 478.5 C-38.10907712 472.99052289 -42.54025946 467.27859186 -46.87695312 461.40234375 C-50.24893595 456.84205489 -53.73468735 452.4000757 -57.3125 448 C-63.44447125 440.42232022 -69.14377967 432.55953503 -74.78564453 424.61279297 C-76.3086796 422.46837831 -77.83914935 420.32946119 -79.37109375 418.19140625 C-87.29687344 407.09032248 -94.87020082 395.76366645 -102.375 384.375 C-103.10783203 383.26922607 -103.10783203 383.26922607 -103.85546875 382.14111328 C-149.02818398 313.92335391 -194.83981494 229.80552242 -178.75 145.5 C-173.56549927 120.38804512 -163.44120598 97.09324797 -148.375 76.375 C-147.96781738 75.81232422 -147.56063477 75.24964844 -147.14111328 74.66992188 C-139.01963811 63.54920299 -130.04526732 53.12905674 -119.375 44.375 C-118.18197266 43.35019531 -118.18197266 43.35019531 -116.96484375 42.3046875 C-92.16717857 21.34171281 -63.15785992 8.3634829 -31.375 2.375 C-30.41480957 2.18808594 -29.45461914 2.00117187 -28.46533203 1.80859375 C-18.97548236 0.13768798 -9.6057102 -0.02139224 0 0 Z M-69.00073242 117.50830078 C-86.63004972 136.07129419 -95.33075247 161.10462788 -94.68359375 186.5234375 C-93.40410292 212.633545 -81.56626013 236.16500461 -62.625 254.0625 C-41.60153722 272.25900565 -15.65020113 279.12448407 11.625 277.375 C37.21651443 274.2472555 60.3721706 260.58522666 76.34375 240.54296875 C80.28516155 235.06953592 83.55630131 229.37509543 86.625 223.375 C87.10839844 222.43398437 87.59179688 221.49296875 88.08984375 220.5234375 C98.40367948 198.26561572 98.220078 172.11872649 90 149.3125 C81.29138927 126.73462033 63.7529891 106.6906525 41.640625 96.4921875 C2.95882642 79.42798835 -39.17045876 87.52758975 -69.00073242 117.50830078 Z " fill="#F2A967" transform="translate(255.375,-0.375)"/>
<path d="M0 0 C0 0.33 0 0.66 0 1 C-0.8971875 1.12375 -1.794375 1.2475 -2.71875 1.375 C-28.76539075 5.68022988 -50.70378694 23.99727121 -65.94140625 44.9609375 C-81.64805815 67.38617522 -93.06761043 92.55053728 -100 119 C-100.24008789 119.89025879 -100.48017578 120.78051758 -100.72753906 121.69775391 C-102.69159429 129.20192719 -104.03109425 136.69910047 -105.125 144.375 C-105.29676758 145.57108887 -105.46853516 146.76717773 -105.64550781 147.99951172 C-106.77137796 156.01067901 -107.79635498 163.90511056 -108 172 C-108.02578125 172.85110352 -108.0515625 173.70220703 -108.078125 174.57910156 C-108.73067614 198.78059182 -105.54930022 222.27594685 -101 246 C-100.78690186 247.12760742 -100.57380371 248.25521484 -100.35424805 249.41699219 C-98.49897342 258.99447656 -96.2542763 268.43249393 -93.8125 277.875 C-93.5189563 279.01485352 -93.5189563 279.01485352 -93.21948242 280.17773438 C-89.92039035 292.94222151 -86.20540971 305.51480015 -81.99609375 318.01171875 C-80.98979032 321.03062905 -80.02241602 324.05979857 -79.0625 327.09375 C-64.9142256 371.36228062 -46.06444696 414.19438354 -25.54345703 455.84375 C-23.6013777 459.8151517 -21.71464889 463.81135297 -19.82910156 467.80981445 C-13.25559404 481.73323753 -6.16104212 495.37213857 1 509 C-0.32 509.33 -1.64 509.66 -3 510 C-8.92734836 503.69978157 -14.47006911 497.24744942 -19.75341797 490.40136719 C-23.02032735 486.18916361 -26.43010769 482.13816762 -29.9375 478.125 C-34.73407712 472.61552289 -39.16525946 466.90359186 -43.50195312 461.02734375 C-46.87393595 456.46705489 -50.35968735 452.0250757 -53.9375 447.625 C-60.06947125 440.04732022 -65.76877967 432.18453503 -71.41064453 424.23779297 C-72.9336796 422.09337831 -74.46414935 419.95446119 -75.99609375 417.81640625 C-83.92187344 406.71532248 -91.49520082 395.38866645 -99 384 C-99.73283203 382.89422607 -99.73283203 382.89422607 -100.48046875 381.76611328 C-145.65318398 313.54835391 -191.46481494 229.43052242 -175.375 145.125 C-170.19049927 120.01304512 -160.06620598 96.71824797 -145 76 C-144.59281738 75.43732422 -144.18563477 74.87464844 -143.76611328 74.29492188 C-135.64463811 63.17420299 -126.67026732 52.75405674 -116 44 C-114.80697266 42.97519531 -114.80697266 42.97519531 -113.58984375 41.9296875 C-88.6754944 20.86807259 -59.82681359 8.26058841 -28 2 C-26.76121094 1.7525 -25.52242187 1.505 -24.24609375 1.25 C-16.13310866 -0.18345994 -8.21296072 -0.20447205 0 0 Z " fill="#C68658" transform="translate(252,0)"/>
</svg>
